<?xml version="1.0" encoding="UTF-8"?>
<svg id="_央铋_1" data-name="央铋 1" xmlns="http://www.w3.org/2000/svg" xmlns:xlink="http://www.w3.org/1999/xlink" viewBox="0 0 311.41 292.77">
  <defs>
    <style>
      .cls-1 {
        fill: url(#linear-gradient);
        stroke-width: 0px;
      }

      .cls-2 {
        font-family: AlimamaFangYuanTiVF-Regular-Square, 'Alimama FangYuanTi VF';
        font-size: 58.12px;
        font-variation-settings: 'wght' 400, 'BEVL' 1;
        letter-spacing: .12em;
      }
    </style>
    <linearGradient id="linear-gradient" x1="276.59" y1="278.26" x2="27.49" y2="-19.21" gradientUnits="userSpaceOnUse">
      <stop offset="0" stop-color="#ff9d00"/>
      <stop offset=".21" stop-color="#f75830"/>
      <stop offset=".41" stop-color="#f11e5a"/>
      <stop offset=".82" stop-color="#9800a6"/>
      <stop offset="1" stop-color="#7600bf"/>
    </linearGradient>
  </defs>
  <path class="cls-1" d="m191.87,148.13l8.68-31.72c1.25-4.59,3.28-4.62,4.53-.06,1.25,4.55,2.27,8.24,2.27,8.24.63,2.29.65,6.01.04,8.31l-4.81,18.14c-2.72,9.7-7.77,27.76-23.47,27.76-3.9,0-7.15-1.12-9.86-2.95,15.03-.65,19.95-18.21,22.62-27.73Zm-39.65-29.57l2.21-8c.63-2.29.65-6.01.05-8.31l-4.95-17.85c-2.72-9.7-7.77-27.76-23.47-27.76-3.9,0-7.15,1.12-9.86,2.95,15.03.65,19.95,18.21,22.62,27.73l8.89,30.95c1.27,4.58,3.3,4.71,4.52.3Zm92.71-31.25l21.44,81.16h-26.07l-22.21-84.08c-2.71-9.7-7.77-27.76-23.47-27.76s-20.76,18.06-23.49,27.84l-16.81,63.65c-3.89,13.88-7.59,19.57-12.75,19.57s-8.87-5.69-12.78-19.65l-16.81-63.65c-2.71-9.7-7.77-27.76-23.47-27.76s-20.76,18.06-23.49,27.84l-23.38,88.5c-.85,3.22,1.16,5.83,4.49,5.83h36.99c3.33,0,6.72-2.61,7.57-5.83l10.96-40.65c.61-2.3.62-6.03.01-8.33l-2.49-9.58c-1.2-4.6-3.15-4.6-4.36,0l-14.49,54.34v-.28h-26l21.42-81.08c3.91-13.96,7.61-19.65,12.78-19.65s8.87,5.69,12.75,19.57l16.81,63.65c2.74,9.78,7.79,27.84,23.49,27.84s20.76-18.06,23.47-27.76l16.81-63.65c3.91-13.96,7.61-19.65,12.78-19.65s8.87,5.69,12.75,19.57l22.63,85.67c.85,3.22,4.24,5.83,7.57,5.83h36.99c3.33,0,5.34-2.61,4.49-5.83l-23.4-88.58c-2.72-9.7-7.77-27.76-23.47-27.76-3.9,0-7.15,1.12-9.86,2.95,15.03.65,19.95,18.21,22.62,27.73Z"/>
  <text class="cls-2" transform="translate(32.18 242.8)"><tspan x="0" y="0">MaiPDF</tspan></text>
</svg>